<svg xmlns="http://www.w3.org/2000/svg" viewBox="0 0 48 48" fill="none">
  <defs>
    <linearGradient id="bg" x1="0" y1="0" x2="48" y2="48">
      <stop offset="0" stop-color="#10192b"/>
      <stop offset="1" stop-color="#060b14"/>
    </linearGradient>
    <linearGradient id="gold" x1="0" y1="0" x2="24" y2="24">
      <stop offset="0" stop-color="#f1c774"/>
      <stop offset="1" stop-color="#c89040"/>
    </linearGradient>
    <radialGradient id="glow" cx="0.5" cy="0.5" r="0.5">
      <stop offset="0" stop-color="#e4b259" stop-opacity="0.5"/>
      <stop offset="1" stop-color="#e4b259" stop-opacity="0"/>
    </radialGradient>
  </defs>
  <rect width="48" height="48" rx="10" fill="url(#bg)"/>
  <rect width="48" height="48" rx="10" fill="url(#glow)" opacity="0.5"/>
  <path
    d="M14 11.5c0-1.1.9-2 2-2h11.2c.53 0 1.04.21 1.41.59l5.3 5.3c.38.38.59.88.59 1.42V34.5c0 1.1-.9 2-2 2H16c-1.1 0-2-.9-2-2v-23z"
    stroke="url(#gold)"
    stroke-width="1.8"
    stroke-linejoin="round"
  />
  <path
    d="M27 10v6a2 2 0 0 0 2 2h5"
    stroke="url(#gold)"
    stroke-width="1.8"
    stroke-linecap="round"
    stroke-linejoin="round"
  />
  <path
    d="M19 22h11M19 27h11M19 32h7"
    stroke="url(#gold)"
    stroke-width="1.8"
    stroke-linecap="round"
  />
</svg>
